<svg width="32" height="32" viewBox="0 0 512 512" fill="none" xmlns="http://www.w3.org/2000/svg">
    <rect width="512" height="512" rx="90" fill="url(#grad)"/>
    <defs>
        <linearGradient id="grad" x1="0%" y1="0%" x2="100%" y2="100%">
            <stop offset="0%" stop-color="#0d8a6f"/>
            <stop offset="100%" stop-color="#0a7b8c"/>
        </linearGradient>
    </defs>
    <path d="M256 48c-12 0-24 6-30 16-6 10-6 22 0 32 6 10 18 16 30 16s24-6 30-16c6-10 6-22 0-32-6-10-18-16-30-16z" fill="#38c9a7"/>
    <circle cx="256" cy="256" r="120" fill="none" stroke="#28e0c0" stroke-width="8"/>
    <rect x="200" y="200" width="112" height="12" rx="6" fill="#eaf0ff" fill-opacity="0.7"/>
    <rect x="200" y="232" width="112" height="12" rx="6" fill="#eaf0ff" fill-opacity="0.7"/>
    <rect x="200" y="264" width="80" height="12" rx="6" fill="#eaf0ff" fill-opacity="0.7"/>
    <rect x="200" y="296" width="60" height="12" rx="6" fill="#eaf0ff" fill-opacity="0.7"/>
    <path d="M256 356c-12 0-24 6-30 16-6 10-6 22 0 32 6 10 18 16 30 16s24-6 30-16c6-10 6-22 0-32-6-10-18-16-30-16z" fill="#38c9a7"/>
    <path d="M196 396l60 60 60-60" stroke="#28e0c0" stroke-width="14" fill="none" stroke-linecap="round" stroke-linejoin="round"/>
</svg>